<svg width="249" height="99" viewBox="0 0 249 99" fill="none" xmlns="http://www.w3.org/2000/svg">
<rect width="249" height="99" rx="12" fill="#AB8463"/>
<path d="M38.5605 37.709L45.7324 57.6953H48.6855V61H38.2441V57.6953H41.707L39.6504 51.6836H30.0352L27.9785 57.6953H31.3359V61H20.8242V57.6953H24.0234L31.1602 37.709H27.9785V34.5098H41.7422V37.709H38.5605ZM34.9395 37.709H34.8164L31.0723 48.5723H38.5957L34.9395 37.709ZM71.8184 57.7656V61H64.875V58.293C63.0234 60.3086 60.8145 61.3164 58.248 61.3164C56.4668 61.3164 54.8906 60.9004 53.5195 60.0684C52.1602 59.2246 51.0996 58.082 50.3379 56.6406C49.5879 55.1992 49.2129 53.6055 49.2129 51.8594C49.2129 50.0781 49.6113 48.4375 50.4082 46.9375C51.2168 45.4375 52.3301 44.248 53.748 43.3691C55.166 42.4785 56.7012 42.0332 58.3535 42.0332C59.5488 42.0332 60.6797 42.2734 61.7461 42.7539C62.8242 43.2344 63.8672 43.9902 64.875 45.0215V37.709H61.3066V34.5098H68.4785V57.7656H71.8184ZM58.9336 58.082C60.0586 58.082 61.0723 57.7832 61.9746 57.1855C62.877 56.5879 63.5859 55.791 64.1016 54.7949C64.6172 53.7988 64.875 52.7324 64.875 51.5957C64.875 50.4473 64.6172 49.3984 64.1016 48.4492C63.5859 47.5 62.8711 46.75 61.957 46.1992C61.043 45.6484 60.0117 45.373 58.8633 45.373C57.75 45.373 56.7539 45.6719 55.875 46.2695C55.0078 46.8555 54.3223 47.6406 53.8184 48.625C53.3145 49.5977 53.0625 50.6406 53.0625 51.7539C53.0625 52.9492 53.3203 54.0273 53.8359 54.9883C54.3516 55.9492 55.0547 56.7051 55.9453 57.2559C56.8359 57.8066 57.832 58.082 58.9336 58.082ZM96.252 57.7656V61H89.3086V58.293C87.457 60.3086 85.248 61.3164 82.6816 61.3164C80.9004 61.3164 79.3242 60.9004 77.9531 60.0684C76.5938 59.2246 75.5332 58.082 74.7715 56.6406C74.0215 55.1992 73.6465 53.6055 73.6465 51.8594C73.6465 50.0781 74.0449 48.4375 74.8418 46.9375C75.6504 45.4375 76.7637 44.248 78.1816 43.3691C79.5996 42.4785 81.1348 42.0332 82.7871 42.0332C83.9824 42.0332 85.1133 42.2734 86.1797 42.7539C87.2578 43.2344 88.3008 43.9902 89.3086 45.0215V37.709H85.7402V34.5098H92.9121V57.7656H96.252ZM83.3672 58.082C84.4922 58.082 85.5059 57.7832 86.4082 57.1855C87.3105 56.5879 88.0195 55.791 88.5352 54.7949C89.0508 53.7988 89.3086 52.7324 89.3086 51.5957C89.3086 50.4473 89.0508 49.3984 88.5352 48.4492C88.0195 47.5 87.3047 46.75 86.3906 46.1992C85.4766 45.6484 84.4453 45.373 83.2969 45.373C82.1836 45.373 81.1875 45.6719 80.3086 46.2695C79.4414 46.8555 78.7559 47.6406 78.252 48.625C77.748 49.5977 77.4961 50.6406 77.4961 51.7539C77.4961 52.9492 77.7539 54.0273 78.2695 54.9883C78.7852 55.9492 79.4883 56.7051 80.3789 57.2559C81.2695 57.8066 82.2656 58.082 83.3672 58.082ZM117.1 42.5254V45.7773H113.725V55.4629C113.725 56.4707 113.83 57.127 114.041 57.4316C114.264 57.7246 114.639 57.8711 115.166 57.8711C115.811 57.8711 116.455 57.7598 117.1 57.5371V60.8242C115.975 61.1523 115.066 61.3164 114.375 61.3164C112.852 61.3164 111.756 60.9355 111.088 60.1738C110.42 59.4004 110.086 58.082 110.086 56.2188V45.7773H107.678V42.5254H110.086V39.7305L113.725 36.4082V42.5254H117.1ZM139.002 51.7891C139.002 53.582 138.574 55.2227 137.719 56.7109C136.863 58.1992 135.697 59.377 134.221 60.2441C132.744 61.1113 131.109 61.5449 129.316 61.5449C127.465 61.5449 125.795 61.1113 124.307 60.2441C122.818 59.377 121.658 58.1992 120.826 56.7109C120.006 55.2227 119.596 53.582 119.596 51.7891C119.596 49.9141 120.006 48.2383 120.826 46.7617C121.658 45.2852 122.812 44.1309 124.289 43.2988C125.766 42.4551 127.441 42.0332 129.316 42.0332C131.133 42.0332 132.779 42.4785 134.256 43.3691C135.732 44.248 136.893 45.4316 137.736 46.9199C138.58 48.4082 139.002 50.0312 139.002 51.7891ZM129.316 58.0117C130.395 58.0117 131.385 57.7305 132.287 57.168C133.189 56.6055 133.893 55.8496 134.396 54.9004C134.9 53.9512 135.152 52.9141 135.152 51.7891C135.152 50.6875 134.9 49.6621 134.396 48.7129C133.893 47.7637 133.189 47.002 132.287 46.4277C131.385 45.8418 130.383 45.5488 129.281 45.5488C128.203 45.5488 127.213 45.8359 126.311 46.4102C125.408 46.9727 124.699 47.7344 124.184 48.6953C123.668 49.6562 123.41 50.6875 123.41 51.7891C123.41 52.8906 123.668 53.9219 124.184 54.8828C124.699 55.8438 125.414 56.6055 126.328 57.168C127.242 57.7305 128.238 58.0117 129.316 58.0117ZM173.947 37.4277V34.5098H177.322V43H173.877C173.01 41.3008 171.82 39.9766 170.309 39.0273C168.797 38.0781 167.139 37.6035 165.334 37.6035C163.588 37.6035 162.029 38.0664 160.658 38.9922C159.287 39.9062 158.215 41.1367 157.441 42.6836C156.68 44.2188 156.299 45.8711 156.299 47.6406C156.299 49.4688 156.697 51.1562 157.494 52.7031C158.303 54.25 159.41 55.4863 160.816 56.4121C162.223 57.3379 163.787 57.8008 165.51 57.8008C167.631 57.8008 169.506 57.1562 171.135 55.8672C172.764 54.5664 173.953 52.7266 174.703 50.3477L178.078 52.1406C177.164 55.0938 175.547 57.3848 173.227 59.0137C170.918 60.6309 168.205 61.4395 165.088 61.4395C162.521 61.4395 160.242 60.8301 158.25 59.6113C156.258 58.3809 154.705 56.7344 153.592 54.6719C152.49 52.5977 151.939 50.3242 151.939 47.8516C151.939 45.168 152.502 42.7773 153.627 40.6797C154.764 38.582 156.328 36.959 158.32 35.8105C160.312 34.6504 162.592 34.0703 165.158 34.0703C166.881 34.0703 168.469 34.3574 169.922 34.9316C171.375 35.5059 172.717 36.3379 173.947 37.4277ZM196.922 49.0469V57.7656H200.016V61H193.723V58.7324C191.965 60.4551 190.008 61.3164 187.852 61.3164C186.715 61.3164 185.672 61.0527 184.723 60.5254C183.785 59.998 183.029 59.2949 182.455 58.416C181.893 57.5254 181.611 56.541 181.611 55.4629C181.611 54.3027 181.922 53.2715 182.543 52.3691C183.176 51.4551 184.025 50.752 185.092 50.2598C186.158 49.7676 187.23 49.5215 188.309 49.5215C190.113 49.5215 191.795 50.0488 193.354 51.1035V49.1172C193.354 47.6758 193.049 46.6445 192.439 46.0234C191.83 45.4023 190.828 45.0918 189.434 45.0918C188.449 45.0918 187.623 45.2734 186.955 45.6367C186.299 45.9883 185.754 46.5273 185.32 47.2539L181.84 46.3926C182.625 44.9277 183.686 43.8379 185.021 43.123C186.357 42.3965 187.945 42.0332 189.785 42.0332C192.258 42.0332 194.062 42.5957 195.199 43.7207C196.348 44.8457 196.922 46.6211 196.922 49.0469ZM188.344 58.5215C190.125 58.5215 191.795 57.7773 193.354 56.2891V54.127C191.771 52.8965 190.189 52.2812 188.607 52.2812C187.646 52.2812 186.814 52.5859 186.111 53.1953C185.42 53.793 185.074 54.5488 185.074 55.4629C185.074 56.3418 185.379 57.0742 185.988 57.6602C186.598 58.2344 187.383 58.5215 188.344 58.5215ZM208.805 53.582V57.7656H212.83V61H201.492V57.7656H205.201V45.7773H201.492V42.5254H208.084V46.709C208.822 45.0566 209.736 43.9082 210.826 43.2637C211.928 42.6074 213.498 42.2793 215.537 42.2793H216.363V45.9531H215.572C213.604 45.9531 212.139 46.2109 211.178 46.7266C210.217 47.2422 209.578 48.0215 209.262 49.0645C208.957 50.1074 208.805 51.6133 208.805 53.582ZM227.631 42.5254V45.7773H224.256V55.4629C224.256 56.4707 224.361 57.127 224.572 57.4316C224.795 57.7246 225.17 57.8711 225.697 57.8711C226.342 57.8711 226.986 57.7598 227.631 57.5371V60.8242C226.506 61.1523 225.598 61.3164 224.906 61.3164C223.383 61.3164 222.287 60.9355 221.619 60.1738C220.951 59.4004 220.617 58.082 220.617 56.2188V45.7773H218.209V42.5254H220.617V39.7305L224.256 36.4082V42.5254H227.631Z" fill="white"/>
</svg>

