<svg width="284" height="191" viewBox="0 0 284 191" fill="none" xmlns="http://www.w3.org/2000/svg">
<rect width="284" height="191" fill="#C4C4C4"/>
<path d="M31.9004 17.2139V15.7549H33.5879V20H31.8652C31.4316 19.1504 30.8369 18.4883 30.0811 18.0137C29.3252 17.5391 28.4961 17.3018 27.5938 17.3018C26.7207 17.3018 25.9414 17.5332 25.2559 17.9961C24.5703 18.4531 24.0342 19.0684 23.6475 19.8418C23.2666 20.6094 23.0762 21.4355 23.0762 22.3203C23.0762 23.2344 23.2754 24.0781 23.6738 24.8516C24.0781 25.625 24.6318 26.2432 25.335 26.7061C26.0381 27.1689 26.8203 27.4004 27.6816 27.4004C28.7422 27.4004 29.6797 27.0781 30.4941 26.4336C31.3086 25.7832 31.9033 24.8633 32.2783 23.6738L33.9658 24.5703C33.5088 26.0469 32.7002 27.1924 31.54 28.0068C30.3857 28.8154 29.0293 29.2197 27.4707 29.2197C26.1875 29.2197 25.0479 28.915 24.0518 28.3057C23.0557 27.6904 22.2793 26.8672 21.7227 25.8359C21.1719 24.7988 20.8965 23.6621 20.8965 22.4258C20.8965 21.084 21.1777 19.8887 21.7402 18.8398C22.3086 17.791 23.0908 16.9795 24.0869 16.4053C25.083 15.8252 26.2227 15.5352 27.5059 15.5352C28.3672 15.5352 29.1611 15.6787 29.8877 15.9658C30.6143 16.2529 31.2852 16.6689 31.9004 17.2139ZM39.6611 27.5762C40.4756 27.5762 41.3574 27.1807 42.3066 26.3896V21.3887H40.6719V19.7627H44.126V27.3828H45.708V29H42.3066V27.9365C41.2402 28.751 40.2266 29.1582 39.2656 29.1582C38.3984 29.1582 37.7568 28.9004 37.3408 28.3848C36.9307 27.8691 36.7256 27.0137 36.7256 25.8184V21.3887H35.4336V19.7627H38.5449V26.1963C38.5449 26.6709 38.6299 27.0195 38.7998 27.2422C38.9756 27.4648 39.2627 27.5762 39.6611 27.5762ZM52.3877 20.1582V19.7627H53.9697V22.8301H52.3877V22.2676C51.8604 21.5117 51.1396 21.1338 50.2256 21.1338C49.7451 21.1338 49.3525 21.2393 49.0479 21.4502C48.7432 21.6611 48.5908 21.9336 48.5908 22.2676C48.5908 22.5664 48.7051 22.8008 48.9336 22.9707C49.168 23.1406 49.6895 23.29 50.498 23.4189L51.7197 23.6562C53.542 23.9902 54.4531 24.8838 54.4531 26.3369C54.4531 27.1865 54.1221 27.8691 53.46 28.3848C52.8037 28.9004 51.9307 29.1582 50.8408 29.1582C50.4072 29.1582 49.9795 29.0967 49.5576 28.9736C49.1416 28.8447 48.793 28.6865 48.5117 28.499V29H46.8945V25.8359H48.5117V26.1523C48.5996 26.5977 48.8457 26.9551 49.25 27.2246C49.6602 27.4941 50.1348 27.6289 50.6738 27.6289C51.2656 27.6289 51.7314 27.5264 52.0713 27.3213C52.4111 27.1104 52.5811 26.7998 52.5811 26.3896C52.5811 26.0908 52.4463 25.8682 52.1768 25.7217C51.9072 25.5693 51.3652 25.4141 50.5508 25.2559L49.6104 25.0537C48.6787 24.8662 47.9961 24.5439 47.5625 24.0869C47.1289 23.6299 46.9121 23.0469 46.9121 22.3379C46.9121 21.7637 47.0703 21.2744 47.3867 20.8701C47.709 20.46 48.1191 20.1523 48.6172 19.9473C49.1152 19.7422 49.6279 19.6396 50.1553 19.6396C51.04 19.6396 51.7842 19.8125 52.3877 20.1582ZM60.4473 19.7627V21.3887H58.7598V26.2314C58.7598 26.7354 58.8125 27.0635 58.918 27.2158C59.0293 27.3623 59.2168 27.4355 59.4805 27.4355C59.8027 27.4355 60.125 27.3799 60.4473 27.2686V28.9121C59.8848 29.0762 59.4307 29.1582 59.085 29.1582C58.3232 29.1582 57.7754 28.9678 57.4414 28.5869C57.1074 28.2002 56.9404 27.541 56.9404 26.6094V21.3887H55.7363V19.7627H56.9404V18.3652L58.7598 16.7041V19.7627H60.4473ZM71.3984 24.3945C71.3984 25.291 71.1846 26.1113 70.7568 26.8555C70.3291 27.5996 69.7461 28.1885 69.0078 28.6221C68.2695 29.0557 67.4521 29.2725 66.5557 29.2725C65.6299 29.2725 64.7949 29.0557 64.0508 28.6221C63.3066 28.1885 62.7266 27.5996 62.3105 26.8555C61.9004 26.1113 61.6953 25.291 61.6953 24.3945C61.6953 23.457 61.9004 22.6191 62.3105 21.8809C62.7266 21.1426 63.3037 20.5654 64.042 20.1494C64.7803 19.7275 65.6182 19.5166 66.5557 19.5166C67.4639 19.5166 68.2871 19.7393 69.0254 20.1846C69.7637 20.624 70.3438 21.2158 70.7656 21.96C71.1875 22.7041 71.3984 23.5156 71.3984 24.3945ZM66.5557 27.5059C67.0947 27.5059 67.5898 27.3652 68.041 27.084C68.4922 26.8027 68.8438 26.4248 69.0957 25.9502C69.3477 25.4756 69.4736 24.957 69.4736 24.3945C69.4736 23.8438 69.3477 23.3311 69.0957 22.8564C68.8438 22.3818 68.4922 22.001 68.041 21.7139C67.5898 21.4209 67.0889 21.2744 66.5381 21.2744C65.999 21.2744 65.5039 21.418 65.0527 21.7051C64.6016 21.9863 64.2471 22.3672 63.9893 22.8477C63.7314 23.3281 63.6025 23.8438 63.6025 24.3945C63.6025 24.9453 63.7314 25.4609 63.9893 25.9414C64.2471 26.4219 64.6045 26.8027 65.0615 27.084C65.5186 27.3652 66.0166 27.5059 66.5557 27.5059ZM74.1582 27.3828V21.3887H72.6025V19.7627H75.9688V20.9316C77.0527 20.0703 78.1162 19.6396 79.1592 19.6396C80.2256 19.6396 80.958 20.1201 81.3564 21.0811C82.54 20.1201 83.6562 19.6396 84.7051 19.6396C85.4492 19.6396 86.041 19.8594 86.4805 20.2988C86.9258 20.7383 87.1484 21.4121 87.1484 22.3203V27.3828H88.7656V29H85.3467V23.1465C85.3467 22.7422 85.3262 22.4141 85.2852 22.1621C85.2441 21.9102 85.1357 21.6963 84.96 21.5205C84.79 21.3447 84.5176 21.2568 84.1426 21.2568C83.8086 21.2568 83.4189 21.3564 82.9736 21.5557C82.5283 21.7549 82.0596 22.0537 81.5674 22.4521V27.3828H83.1318V29H79.748V22.918C79.748 22.3262 79.6572 21.9014 79.4756 21.6436C79.2998 21.3857 79.0068 21.2568 78.5967 21.2568C77.9287 21.2568 77.0527 21.6553 75.9688 22.4521V27.3828H77.5947V29H72.4971V27.3828H74.1582ZM99.4883 24.8428H91.7451C91.8564 25.7275 92.1992 26.4277 92.7734 26.9434C93.3477 27.4531 94.0508 27.708 94.8828 27.708C95.4922 27.708 96.0576 27.582 96.5791 27.3301C97.1006 27.0781 97.5371 26.6914 97.8887 26.1699L99.4883 26.8906C98.9844 27.6758 98.3223 28.2705 97.502 28.6748C96.6875 29.0732 95.7998 29.2725 94.8389 29.2725C93.8428 29.2725 92.958 29.0645 92.1846 28.6484C91.4111 28.2324 90.8076 27.6523 90.374 26.9082C89.9463 26.1641 89.7324 25.3262 89.7324 24.3945C89.7324 23.4688 89.9434 22.6338 90.3652 21.8896C90.793 21.1455 91.376 20.5654 92.1143 20.1494C92.8525 19.7275 93.667 19.5166 94.5576 19.5166C95.5303 19.5166 96.377 19.7334 97.0977 20.167C97.8242 20.5947 98.3955 21.21 98.8115 22.0127C99.2275 22.8096 99.4531 23.7529 99.4883 24.8428ZM94.5928 21.0283C93.9072 21.0283 93.3066 21.2598 92.791 21.7227C92.2754 22.1797 91.9443 22.7861 91.7979 23.542H97.5811C97.4111 22.7861 97.0508 22.1797 96.5 21.7227C95.9492 21.2598 95.3135 21.0283 94.5928 21.0283ZM104.226 25.291V27.3828H106.238V29H100.569V27.3828H102.424V21.3887H100.569V19.7627H103.865V21.8545C104.234 21.0283 104.691 20.4541 105.236 20.1318C105.787 19.8037 106.572 19.6396 107.592 19.6396H108.005V21.4766H107.609C106.625 21.4766 105.893 21.6055 105.412 21.8633C104.932 22.1211 104.612 22.5107 104.454 23.0322C104.302 23.5537 104.226 24.3066 104.226 25.291ZM117.269 25.291V27.3828H119.281V29H113.612V27.3828H115.467V21.3887H113.612V19.7627H116.908V21.8545C117.277 21.0283 117.734 20.4541 118.279 20.1318C118.83 19.8037 119.615 19.6396 120.635 19.6396H121.048V21.4766H120.652C119.668 21.4766 118.936 21.6055 118.455 21.8633C117.975 22.1211 117.655 22.5107 117.497 23.0322C117.345 23.5537 117.269 24.3066 117.269 25.291ZM129.925 23.0234V27.3828H131.472V29H128.325V27.8662C127.446 28.7275 126.468 29.1582 125.39 29.1582C124.821 29.1582 124.3 29.0264 123.825 28.7627C123.356 28.499 122.979 28.1475 122.691 27.708C122.41 27.2627 122.27 26.7705 122.27 26.2314C122.27 25.6514 122.425 25.1357 122.735 24.6846C123.052 24.2275 123.477 23.876 124.01 23.6299C124.543 23.3838 125.079 23.2607 125.618 23.2607C126.521 23.2607 127.361 23.5244 128.141 24.0518V23.0586C128.141 22.3379 127.988 21.8223 127.684 21.5117C127.379 21.2012 126.878 21.0459 126.181 21.0459C125.688 21.0459 125.275 21.1367 124.941 21.3184C124.613 21.4941 124.341 21.7637 124.124 22.127L122.384 21.6963C122.776 20.9639 123.307 20.4189 123.975 20.0615C124.643 19.6982 125.437 19.5166 126.356 19.5166C127.593 19.5166 128.495 19.7979 129.063 20.3604C129.638 20.9229 129.925 21.8105 129.925 23.0234ZM125.636 27.7607C126.526 27.7607 127.361 27.3887 128.141 26.6445V25.5635C127.35 24.9482 126.559 24.6406 125.768 24.6406C125.287 24.6406 124.871 24.793 124.52 25.0977C124.174 25.3965 124.001 25.7744 124.001 26.2314C124.001 26.6709 124.153 27.0371 124.458 27.3301C124.763 27.6172 125.155 27.7607 125.636 27.7607ZM137.123 19.7627V21.3887H135.436V26.2314C135.436 26.7354 135.488 27.0635 135.594 27.2158C135.705 27.3623 135.893 27.4355 136.156 27.4355C136.479 27.4355 136.801 27.3799 137.123 27.2686V28.9121C136.561 29.0762 136.106 29.1582 135.761 29.1582C134.999 29.1582 134.451 28.9678 134.117 28.5869C133.783 28.2002 133.616 27.541 133.616 26.6094V21.3887H132.412V19.7627H133.616V18.3652L135.436 16.7041V19.7627H137.123ZM141.5 16.6514C141.5 16.9502 141.392 17.208 141.175 17.4248C140.958 17.6416 140.7 17.75 140.401 17.75C140.103 17.75 139.848 17.6416 139.637 17.4248C139.426 17.208 139.32 16.9502 139.32 16.6514C139.32 16.3525 139.426 16.0947 139.637 15.8779C139.848 15.6611 140.103 15.5527 140.401 15.5527C140.712 15.5527 140.973 15.6582 141.184 15.8691C141.395 16.0801 141.5 16.3408 141.5 16.6514ZM142.801 27.3828V29H138.134V27.3828H139.575V21.3887H138.134V19.7627H141.395V27.3828H142.801ZM152.688 22.7861V27.3828H154.235V29H150.869V22.9004C150.869 22.3203 150.784 21.9043 150.614 21.6523C150.45 21.4004 150.178 21.2744 149.797 21.2744C148.988 21.2744 148.08 21.6729 147.072 22.4697V27.3828H148.663V29H143.653V27.3828H145.279V21.3887H143.653V19.7627H147.072V20.8789C148.203 20.0527 149.267 19.6396 150.263 19.6396C151.089 19.6396 151.698 19.8945 152.091 20.4043C152.489 20.9141 152.688 21.708 152.688 22.7861ZM163.095 21.0986V19.7627H166.566V21.3887H164.896V28.3145C164.896 29.9258 164.489 31.168 163.675 32.041C162.866 32.9199 161.683 33.3594 160.124 33.3594C158.647 33.3594 157.388 32.9434 156.345 32.1113L157.514 30.8018C157.936 31.1123 158.357 31.3438 158.779 31.4961C159.207 31.6543 159.673 31.7334 160.177 31.7334C161.091 31.7334 161.806 31.4492 162.321 30.8809C162.837 30.3125 163.095 29.5596 163.095 28.6221V27.7607C162.696 28.2295 162.189 28.5986 161.574 28.8682C160.965 29.1377 160.355 29.2725 159.746 29.2725C158.891 29.2725 158.12 29.0557 157.435 28.6221C156.755 28.1885 156.222 27.6143 155.835 26.8994C155.454 26.1787 155.264 25.3906 155.264 24.5352C155.264 23.6621 155.463 22.8506 155.861 22.1006C156.266 21.3506 156.816 20.7529 157.514 20.3076C158.211 19.8623 158.984 19.6396 159.834 19.6396C160.443 19.6396 161.012 19.7598 161.539 20C162.072 20.2402 162.591 20.6064 163.095 21.0986ZM160.089 27.6465C160.663 27.6465 161.182 27.5029 161.645 27.2158C162.107 26.9287 162.468 26.542 162.726 26.0557C162.983 25.5693 163.112 25.0449 163.112 24.4824C163.112 23.9551 162.983 23.4482 162.726 22.9619C162.468 22.4756 162.11 22.083 161.653 21.7842C161.196 21.4854 160.687 21.3359 160.124 21.3359C159.573 21.3359 159.072 21.4795 158.621 21.7666C158.17 22.0537 157.818 22.4404 157.566 22.9268C157.314 23.4131 157.188 23.9375 157.188 24.5C157.188 25.0742 157.309 25.6016 157.549 26.082C157.789 26.5625 158.129 26.9434 158.568 27.2246C159.014 27.5059 159.521 27.6465 160.089 27.6465ZM173.079 20.1582V19.7627H174.661V22.8301H173.079V22.2676C172.552 21.5117 171.831 21.1338 170.917 21.1338C170.437 21.1338 170.044 21.2393 169.739 21.4502C169.435 21.6611 169.282 21.9336 169.282 22.2676C169.282 22.5664 169.396 22.8008 169.625 22.9707C169.859 23.1406 170.381 23.29 171.189 23.4189L172.411 23.6562C174.233 23.9902 175.145 24.8838 175.145 26.3369C175.145 27.1865 174.813 27.8691 174.151 28.3848C173.495 28.9004 172.622 29.1582 171.532 29.1582C171.099 29.1582 170.671 29.0967 170.249 28.9736C169.833 28.8447 169.484 28.6865 169.203 28.499V29H167.586V25.8359H169.203V26.1523C169.291 26.5977 169.537 26.9551 169.941 27.2246C170.352 27.4941 170.826 27.6289 171.365 27.6289C171.957 27.6289 172.423 27.5264 172.763 27.3213C173.103 27.1104 173.272 26.7998 173.272 26.3896C173.272 26.0908 173.138 25.8682 172.868 25.7217C172.599 25.5693 172.057 25.4141 171.242 25.2559L170.302 25.0537C169.37 24.8662 168.688 24.5439 168.254 24.0869C167.82 23.6299 167.604 23.0469 167.604 22.3379C167.604 21.7637 167.762 21.2744 168.078 20.8701C168.4 20.46 168.811 20.1523 169.309 19.9473C169.807 19.7422 170.319 19.6396 170.847 19.6396C171.731 19.6396 172.476 19.8125 173.079 20.1582Z" fill="black"/>
<rect x="63" y="45" width="199" height="12" rx="6" fill="white"/>
<rect x="63" y="95" width="199" height="12" rx="6" fill="white"/>
<rect x="63" y="120" width="199" height="12" rx="6" fill="white"/>
<rect x="63" y="145" width="199" height="12" rx="6" fill="white"/>
<rect x="63" y="70" width="199" height="12" rx="6" fill="white"/>
<rect x="63" y="45" width="147" height="12" rx="6" fill="#AB8463"/>
<rect x="63" y="70" width="35" height="12" rx="6" fill="#AB8463"/>
<rect x="63" y="95" width="18" height="12" rx="6" fill="#AB8463"/>
<rect x="63" y="120" width="9" height="12" rx="4.5" fill="#AB8463"/>
<rect x="63" y="145" width="22" height="12" rx="6" fill="#AB8463"/>
<path d="M28.5039 49.2793V47.4248H24.4609L24.1709 51.3535C24.9502 50.7031 25.8555 50.3779 26.8867 50.3779C27.7129 50.3779 28.4307 50.5771 29.04 50.9756C29.6553 51.3682 30.124 51.8955 30.4463 52.5576C30.7744 53.2139 30.9385 53.9404 30.9385 54.7373C30.9385 55.6221 30.7539 56.4043 30.3848 57.084C30.0215 57.7637 29.4941 58.291 28.8027 58.666C28.1113 59.0352 27.3057 59.2197 26.3857 59.2197C25.0381 59.2197 23.9775 58.8389 23.2041 58.0771C22.4307 57.3096 22.0029 56.208 21.9209 54.7725H23.626C23.7373 55.6807 24.0332 56.3926 24.5137 56.9082C24.9941 57.4238 25.624 57.6816 26.4033 57.6816C27.1826 57.6816 27.8184 57.415 28.3105 56.8818C28.8027 56.3486 29.0488 55.6455 29.0488 54.7725C29.0488 53.8701 28.8174 53.1758 28.3545 52.6895C27.8916 52.2031 27.2998 51.96 26.5791 51.96C25.5244 51.96 24.6426 52.4961 23.9336 53.5684C23.541 53.1816 23.0811 52.8506 22.5537 52.5752L23.0898 45.7725H30.1475V49.2793H28.5039Z" fill="black"/>
<path d="M30.9561 78.832V80.4316H28.8467V82.3828H30.0596V84H25.6826V82.3828H27.0889V80.4316H22.6416C22.4717 79.8457 22.1816 79.3506 21.7715 78.9463L27.2998 70.6406H28.8467V78.832H30.9561ZM27.0889 78.832V73.6113L23.6084 78.832H27.0889Z" fill="black"/>
<path d="M30.376 99.042C30.376 99.7744 30.1855 100.393 29.8047 100.896C29.4297 101.4 28.9961 101.772 28.5039 102.013C29.3711 102.265 29.998 102.66 30.3848 103.199C30.7773 103.732 30.9736 104.424 30.9736 105.273C30.9736 106.152 30.7539 106.891 30.3145 107.488C29.8809 108.086 29.3184 108.525 28.627 108.807C27.9355 109.082 27.2002 109.22 26.4209 109.22C24.9795 109.22 23.8604 108.836 23.0635 108.068C22.2666 107.295 21.8682 106.111 21.8682 104.518H23.6084C23.6494 105.502 23.9248 106.27 24.4346 106.82C24.9443 107.371 25.6416 107.646 26.5264 107.646C27.3174 107.646 27.9443 107.433 28.4072 107.005C28.8701 106.571 29.1016 106.012 29.1016 105.326C29.1016 104.629 28.832 104.052 28.293 103.595C27.7539 103.132 26.9248 102.9 25.8057 102.9C25.5303 102.9 25.334 102.906 25.2168 102.918V101.274H25.4629C26.0664 101.274 26.585 101.233 27.0186 101.151C27.458 101.069 27.8271 100.882 28.126 100.589C28.4307 100.29 28.583 99.8477 28.583 99.2617C28.583 98.6875 28.4102 98.1807 28.0645 97.7412C27.7246 97.3018 27.2061 97.082 26.5088 97.082C25.7764 97.082 25.2344 97.3018 24.8828 97.7412C24.5371 98.1807 24.3467 98.8486 24.3115 99.7451H22.457V99.6045C22.457 98.5029 22.6943 97.6445 23.1689 97.0293C23.6436 96.4082 24.1709 96.0039 24.751 95.8164C25.3369 95.6289 25.876 95.5352 26.3682 95.5352C27.6982 95.5352 28.6973 95.8662 29.3652 96.5283C30.0391 97.1846 30.376 98.0225 30.376 99.042Z" fill="black"/>
<path d="M30.4727 124.139C30.4727 124.883 30.2822 125.533 29.9014 126.09C29.5264 126.646 28.8584 127.279 27.8975 127.988L27.0537 128.621C26.3564 129.148 25.8174 129.576 25.4365 129.904C25.0615 130.232 24.7393 130.596 24.4697 130.994C24.2002 131.393 24.0156 131.838 23.916 132.33H28.8994L28.9785 129.263H30.5781L30.4727 134H21.9912C22.0029 132.922 22.1875 131.987 22.5449 131.196C22.9082 130.399 23.3389 129.743 23.8369 129.228C24.335 128.712 24.9326 128.19 25.6299 127.663L26.9395 126.67C27.543 126.23 27.9648 125.829 28.2051 125.466C28.4453 125.097 28.5654 124.678 28.5654 124.209C28.5654 123.547 28.3721 123.031 27.9854 122.662C27.6045 122.287 27.0771 122.1 26.4033 122.1C25.5361 122.1 24.9326 122.354 24.5928 122.864C24.2529 123.374 24.083 124.165 24.083 125.237V125.686H22.334V125.176C22.334 123.764 22.6445 122.662 23.2656 121.871C23.6406 121.414 24.0859 121.077 24.6016 120.86C25.1172 120.644 25.7354 120.535 26.4561 120.535C27.3467 120.535 28.0908 120.705 28.6885 121.045C29.2861 121.379 29.7314 121.818 30.0244 122.363C30.3232 122.908 30.4727 123.5 30.4727 124.139Z" fill="black"/>
<path d="M29.374 157.383V159H24.0215V157.383H25.8408V147.354H24.0215V145.772H27.6602V157.383H29.374Z" fill="black"/>
<path d="M47.5 42L49.8574 49.6008H57.4861L51.3143 54.2984L53.6717 61.8992L47.5 57.2016L41.3283 61.8992L43.6857 54.2984L37.5139 49.6008H45.1426L47.5 42Z" fill="#AB8463"/>
<path d="M47.5 67L49.8574 74.6008H57.4861L51.3143 79.2984L53.6717 86.8992L47.5 82.2016L41.3283 86.8992L43.6857 79.2984L37.5139 74.6008H45.1426L47.5 67Z" fill="#AB8463"/>
<path d="M47.5 92L49.8574 99.6008H57.4861L51.3143 104.298L53.6717 111.899L47.5 107.202L41.3283 111.899L43.6857 104.298L37.5139 99.6008H45.1426L47.5 92Z" fill="#AB8463"/>
<path d="M47.5 117L49.8574 124.601H57.4861L51.3143 129.298L53.6717 136.899L47.5 132.202L41.3283 136.899L43.6857 129.298L37.5139 124.601H45.1426L47.5 117Z" fill="#AB8463"/>
<path d="M47.5 142L49.8574 149.601H57.4861L51.3143 154.298L53.6717 161.899L47.5 157.202L41.3283 161.899L43.6857 154.298L37.5139 149.601H45.1426L47.5 142Z" fill="#AB8463"/>
</svg>

