<svg width="137" height="22" viewBox="0 0 137 22" fill="none" xmlns="http://www.w3.org/2000/svg">
<path d="M10.5 0L12.8574 7.60081H20.4861L14.3143 12.2984L16.6717 19.8992L10.5 15.2016L4.32825 19.8992L6.68565 12.2984L0.513906 7.60081H8.1426L10.5 0Z" fill="#AB8463"/>
<path d="M40.5 0L42.8574 7.60081H50.4861L44.3143 12.2984L46.6717 19.8992L40.5 15.2016L34.3283 19.8992L36.6857 12.2984L30.5139 7.60081H38.1426L40.5 0Z" fill="#AB8463"/>
<path d="M68.5 0L70.8574 7.60081H78.4861L72.3143 12.2984L74.6717 19.8992L68.5 15.2016L62.3283 19.8992L64.6857 12.2984L58.5139 7.60081H66.1426L68.5 0Z" fill="#AB8463"/>
<path d="M98.5 0L100.857 7.60081H108.486L102.314 12.2984L104.672 19.8992L98.5 15.2016L92.3283 19.8992L94.6857 12.2984L88.5139 7.60081H96.1426L98.5 0Z" fill="#AB8463"/>
<path d="M126.5 0L128.857 7.60081H136.486L130.314 12.2984L132.672 19.8992L126.5 15.2016L120.328 19.8992L122.686 12.2984L116.514 7.60081H124.143L126.5 0Z" fill="#C4C4C4"/>
</svg>

