<svg width="1281" height="205" viewBox="0 0 1281 205" fill="none" xmlns="http://www.w3.org/2000/svg">
<rect x="0.5" y="0.5" width="1280" height="204" rx="12.5" fill="url(#paint0_linear)" fill-opacity="0.3" stroke="black"/>
<path d="M70.248 25.8145V49.2461C70.248 52.1992 69.7266 54.2793 68.6836 55.4863C67.6406 56.7051 65.9531 57.3145 63.6211 57.3145C62.543 57.3145 61.5234 57.1738 60.5625 56.8926V53.1484C61.5703 53.4062 62.4961 53.5352 63.3398 53.5352C64.1602 53.5352 64.7695 53.4004 65.168 53.1309C65.5781 52.873 65.8594 52.457 66.0117 51.8828C66.1758 51.3086 66.2578 50.4941 66.2578 49.4395V25.8145H62.8652V22.5098H73.6406V25.8145H70.248ZM93.5391 39.7891C93.5391 41.582 93.1113 43.2227 92.2559 44.7109C91.4004 46.1992 90.2344 47.377 88.7578 48.2441C87.2812 49.1113 85.6465 49.5449 83.8535 49.5449C82.002 49.5449 80.332 49.1113 78.8438 48.2441C77.3555 47.377 76.1953 46.1992 75.3633 44.7109C74.543 43.2227 74.1328 41.582 74.1328 39.7891C74.1328 37.9141 74.543 36.2383 75.3633 34.7617C76.1953 33.2852 77.3496 32.1309 78.8262 31.2988C80.3027 30.4551 81.9785 30.0332 83.8535 30.0332C85.6699 30.0332 87.3164 30.4785 88.793 31.3691C90.2695 32.248 91.4297 33.4316 92.2734 34.9199C93.1172 36.4082 93.5391 38.0312 93.5391 39.7891ZM83.8535 46.0117C84.9316 46.0117 85.9219 45.7305 86.8242 45.168C87.7266 44.6055 88.4297 43.8496 88.9336 42.9004C89.4375 41.9512 89.6895 40.9141 89.6895 39.7891C89.6895 38.6875 89.4375 37.6621 88.9336 36.7129C88.4297 35.7637 87.7266 35.002 86.8242 34.4277C85.9219 33.8418 84.9199 33.5488 83.8184 33.5488C82.7402 33.5488 81.75 33.8359 80.8477 34.4102C79.9453 34.9727 79.2363 35.7344 78.7207 36.6953C78.2051 37.6562 77.9473 38.6875 77.9473 39.7891C77.9473 40.8906 78.2051 41.9219 78.7207 42.8828C79.2363 43.8438 79.9512 44.6055 80.8652 45.168C81.7793 45.7305 82.7754 46.0117 83.8535 46.0117ZM102.539 24.3027C102.539 24.9004 102.322 25.416 101.889 25.8496C101.455 26.2832 100.939 26.5 100.342 26.5C99.7441 26.5 99.2344 26.2832 98.8125 25.8496C98.3906 25.416 98.1797 24.9004 98.1797 24.3027C98.1797 23.7051 98.3906 23.1895 98.8125 22.7559C99.2344 22.3223 99.7441 22.1055 100.342 22.1055C100.963 22.1055 101.484 22.3164 101.906 22.7383C102.328 23.1602 102.539 23.6816 102.539 24.3027ZM105.141 45.7656V49H95.8066V45.7656H98.6895V33.7773H95.8066V30.5254H102.328V45.7656H105.141ZM124.916 36.5723V45.7656H128.01V49H121.277V36.8008C121.277 35.6406 121.107 34.8086 120.768 34.3047C120.439 33.8008 119.895 33.5488 119.133 33.5488C117.516 33.5488 115.699 34.3457 113.684 35.9395V45.7656H116.865V49H106.846V45.7656H110.098V33.7773H106.846V30.5254H113.684V32.7578C115.945 31.1055 118.072 30.2793 120.064 30.2793C121.717 30.2793 122.936 30.7891 123.721 31.8086C124.518 32.8281 124.916 34.416 124.916 36.5723ZM159.246 39.7891C159.246 41.582 158.818 43.2227 157.963 44.7109C157.107 46.1992 155.941 47.377 154.465 48.2441C152.988 49.1113 151.354 49.5449 149.561 49.5449C147.709 49.5449 146.039 49.1113 144.551 48.2441C143.062 47.377 141.902 46.1992 141.07 44.7109C140.25 43.2227 139.84 41.582 139.84 39.7891C139.84 37.9141 140.25 36.2383 141.07 34.7617C141.902 33.2852 143.057 32.1309 144.533 31.2988C146.01 30.4551 147.686 30.0332 149.561 30.0332C151.377 30.0332 153.023 30.4785 154.5 31.3691C155.977 32.248 157.137 33.4316 157.98 34.9199C158.824 36.4082 159.246 38.0312 159.246 39.7891ZM149.561 46.0117C150.639 46.0117 151.629 45.7305 152.531 45.168C153.434 44.6055 154.137 43.8496 154.641 42.9004C155.145 41.9512 155.396 40.9141 155.396 39.7891C155.396 38.6875 155.145 37.6621 154.641 36.7129C154.137 35.7637 153.434 35.002 152.531 34.4277C151.629 33.8418 150.627 33.5488 149.525 33.5488C148.447 33.5488 147.457 33.8359 146.555 34.4102C145.652 34.9727 144.943 35.7344 144.428 36.6953C143.912 37.6562 143.654 38.6875 143.654 39.7891C143.654 40.8906 143.912 41.9219 144.428 42.8828C144.943 43.8438 145.658 44.6055 146.572 45.168C147.486 45.7305 148.482 46.0117 149.561 46.0117ZM170.268 46.1523C171.896 46.1523 173.66 45.3613 175.559 43.7793V33.7773H172.289V30.5254H179.197V45.7656H182.361V49H175.559V46.873C173.426 48.502 171.398 49.3164 169.477 49.3164C167.742 49.3164 166.459 48.8008 165.627 47.7695C164.807 46.7383 164.396 45.0273 164.396 42.6367V33.7773H161.812V30.5254H168.035V43.3926C168.035 44.3418 168.205 45.0391 168.545 45.4844C168.896 45.9297 169.471 46.1523 170.268 46.1523ZM191.256 41.582V45.7656H195.281V49H183.943V45.7656H187.652V33.7773H183.943V30.5254H190.535V34.709C191.273 33.0566 192.188 31.9082 193.277 31.2637C194.379 30.6074 195.949 30.2793 197.988 30.2793H198.814V33.9531H198.023C196.055 33.9531 194.59 34.2109 193.629 34.7266C192.668 35.2422 192.029 36.0215 191.713 37.0645C191.408 38.1074 191.256 39.6133 191.256 41.582ZM233.426 22.5098H242.602V25.8145H239.402V45.6953H242.602V49H232.635V45.6953H235.764V25.8145L226.658 49.2812H225.867L216.832 25.8145V45.6953H219.75V49H210.346V45.6953H213.562V25.8145H210.346V22.5098H219.434L226.412 40.6504L233.426 22.5098ZM264.609 40.6855H249.123C249.346 42.4551 250.031 43.8555 251.18 44.8867C252.328 45.9062 253.734 46.416 255.398 46.416C256.617 46.416 257.748 46.1641 258.791 45.6602C259.834 45.1562 260.707 44.3828 261.41 43.3398L264.609 44.7812C263.602 46.3516 262.277 47.541 260.637 48.3496C259.008 49.1465 257.232 49.5449 255.311 49.5449C253.318 49.5449 251.549 49.1289 250.002 48.2969C248.455 47.4648 247.248 46.3047 246.381 44.8164C245.525 43.3281 245.098 41.6523 245.098 39.7891C245.098 37.9375 245.52 36.2676 246.363 34.7793C247.219 33.291 248.385 32.1309 249.861 31.2988C251.338 30.4551 252.967 30.0332 254.748 30.0332C256.693 30.0332 258.387 30.4668 259.828 31.334C261.281 32.1895 262.424 33.4199 263.256 35.0254C264.088 36.6191 264.539 38.5059 264.609 40.6855ZM254.818 33.0566C253.447 33.0566 252.246 33.5195 251.215 34.4453C250.184 35.3594 249.521 36.5723 249.229 38.084H260.795C260.455 36.5723 259.734 35.3594 258.633 34.4453C257.531 33.5195 256.26 33.0566 254.818 33.0566ZM270.129 45.7656V33.7773H267.018V30.5254H273.75V32.8633C275.918 31.1406 278.045 30.2793 280.131 30.2793C282.264 30.2793 283.729 31.2402 284.525 33.1621C286.893 31.2402 289.125 30.2793 291.223 30.2793C292.711 30.2793 293.895 30.7188 294.773 31.5977C295.664 32.4766 296.109 33.8242 296.109 35.6406V45.7656H299.344V49H292.506V37.293C292.506 36.4844 292.465 35.8281 292.383 35.3242C292.301 34.8203 292.084 34.3926 291.732 34.041C291.393 33.6895 290.848 33.5137 290.098 33.5137C289.43 33.5137 288.65 33.7129 287.76 34.1113C286.869 34.5098 285.932 35.1074 284.947 35.9043V45.7656H288.076V49H281.309V36.8359C281.309 35.6523 281.127 34.8027 280.764 34.2871C280.412 33.7715 279.826 33.5137 279.006 33.5137C277.67 33.5137 275.918 34.3105 273.75 35.9043V45.7656H277.002V49H266.807V45.7656H270.129ZM314.127 30.0332C315.826 30.0332 317.361 30.4668 318.732 31.334C320.104 32.1895 321.17 33.3496 321.932 34.8145C322.705 36.2793 323.092 37.8613 323.092 39.5605C323.092 41.3184 322.699 42.9414 321.914 44.4297C321.141 45.918 320.068 47.1074 318.697 47.998C317.326 48.877 315.791 49.3164 314.092 49.3164C312.744 49.3164 311.461 49.041 310.242 48.4902C309.035 47.9395 308.086 47.1836 307.395 46.2227V49H300.592V45.7656H303.861V25.709H300.592V22.5098H307.395V33.1621C309.246 31.0762 311.49 30.0332 314.127 30.0332ZM313.371 46.082C314.52 46.082 315.545 45.7715 316.447 45.1504C317.35 44.5293 318.047 43.7148 318.539 42.707C319.031 41.6992 319.277 40.627 319.277 39.4902C319.277 38.3652 319.025 37.334 318.521 36.3965C318.018 35.459 317.32 34.7148 316.43 34.1641C315.539 33.6133 314.531 33.3379 313.406 33.3379C312.281 33.3379 311.273 33.625 310.383 34.1992C309.492 34.7734 308.795 35.5527 308.291 36.5371C307.787 37.5215 307.535 38.6172 307.535 39.8242C307.535 40.9727 307.793 42.0273 308.309 42.9883C308.824 43.9492 309.527 44.7051 310.418 45.2559C311.309 45.8066 312.293 46.082 313.371 46.082ZM345.363 40.6855H329.877C330.1 42.4551 330.785 43.8555 331.934 44.8867C333.082 45.9062 334.488 46.416 336.152 46.416C337.371 46.416 338.502 46.1641 339.545 45.6602C340.588 45.1562 341.461 44.3828 342.164 43.3398L345.363 44.7812C344.355 46.3516 343.031 47.541 341.391 48.3496C339.762 49.1465 337.986 49.5449 336.064 49.5449C334.072 49.5449 332.303 49.1289 330.756 48.2969C329.209 47.4648 328.002 46.3047 327.135 44.8164C326.279 43.3281 325.852 41.6523 325.852 39.7891C325.852 37.9375 326.273 36.2676 327.117 34.7793C327.973 33.291 329.139 32.1309 330.615 31.2988C332.092 30.4551 333.721 30.0332 335.502 30.0332C337.447 30.0332 339.141 30.4668 340.582 31.334C342.035 32.1895 343.178 33.4199 344.01 35.0254C344.842 36.6191 345.293 38.5059 345.363 40.6855ZM335.572 33.0566C334.201 33.0566 333 33.5195 331.969 34.4453C330.938 35.3594 330.275 36.5723 329.982 38.084H341.549C341.209 36.5723 340.488 35.3594 339.387 34.4453C338.285 33.5195 337.014 33.0566 335.572 33.0566ZM354.838 41.582V45.7656H358.863V49H347.525V45.7656H351.234V33.7773H347.525V30.5254H354.117V34.709C354.855 33.0566 355.77 31.9082 356.859 31.2637C357.961 30.6074 359.531 30.2793 361.57 30.2793H362.396V33.9531H361.605C359.637 33.9531 358.172 34.2109 357.211 34.7266C356.25 35.2422 355.611 36.0215 355.295 37.0645C354.99 38.1074 354.838 39.6133 354.838 41.582ZM385.389 31.3164V30.5254H388.553V36.6602H385.389V35.5352C384.334 34.0234 382.893 33.2676 381.064 33.2676C380.104 33.2676 379.318 33.4785 378.709 33.9004C378.1 34.3223 377.795 34.8672 377.795 35.5352C377.795 36.1328 378.023 36.6016 378.48 36.9414C378.949 37.2812 379.992 37.5801 381.609 37.8379L384.053 38.3125C387.697 38.9805 389.52 40.7676 389.52 43.6738C389.52 45.373 388.857 46.7383 387.533 47.7695C386.221 48.8008 384.475 49.3164 382.295 49.3164C381.428 49.3164 380.572 49.1934 379.729 48.9473C378.896 48.6895 378.199 48.373 377.637 47.998V49H374.402V42.6719H377.637V43.3047C377.812 44.1953 378.305 44.9102 379.113 45.4492C379.934 45.9883 380.883 46.2578 381.961 46.2578C383.145 46.2578 384.076 46.0527 384.756 45.6426C385.436 45.2207 385.775 44.5996 385.775 43.7793C385.775 43.1816 385.506 42.7363 384.967 42.4434C384.428 42.1387 383.344 41.8281 381.715 41.5117L379.834 41.1074C377.971 40.7324 376.605 40.0879 375.738 39.1738C374.871 38.2598 374.438 37.0938 374.438 35.6758C374.438 34.5273 374.754 33.5488 375.387 32.7402C376.031 31.9199 376.852 31.3047 377.848 30.8945C378.844 30.4844 379.869 30.2793 380.924 30.2793C382.693 30.2793 384.182 30.625 385.389 31.3164ZM404.566 30.0332C408 30.0332 409.717 31.8906 409.717 35.6055V45.7656H412.846V49H406.078V36.9062C406.078 35.582 405.885 34.6504 405.498 34.1113C405.123 33.5723 404.537 33.3027 403.74 33.3027C402.393 33.3027 400.641 34.0938 398.484 35.6758V45.7656H401.684V49H391.541V45.7656H394.846V25.709H391.541V22.5098H398.484V32.6875C400.664 30.918 402.691 30.0332 404.566 30.0332ZM421.125 24.3027C421.125 24.9004 420.908 25.416 420.475 25.8496C420.041 26.2832 419.525 26.5 418.928 26.5C418.33 26.5 417.82 26.2832 417.398 25.8496C416.977 25.416 416.766 24.9004 416.766 24.3027C416.766 23.7051 416.977 23.1895 417.398 22.7559C417.82 22.3223 418.33 22.1055 418.928 22.1055C419.549 22.1055 420.07 22.3164 420.492 22.7383C420.914 23.1602 421.125 23.6816 421.125 24.3027ZM423.727 45.7656V49H414.393V45.7656H417.275V33.7773H414.393V30.5254H420.914V45.7656H423.727ZM447.475 39.8594C447.475 41.582 447.076 43.1934 446.279 44.6934C445.482 46.1934 444.393 47.377 443.01 48.2441C441.639 49.1113 440.115 49.5449 438.439 49.5449C435.967 49.5449 433.805 48.5957 431.953 46.6973V54.0449H435.557V57.2793H424.975V54.0449H428.314V33.7773H425.221V30.5254H431.953V33.4785C432.867 32.4004 433.875 31.5977 434.977 31.0703C436.078 30.543 437.256 30.2793 438.51 30.2793C440.256 30.2793 441.809 30.7129 443.168 31.5801C444.527 32.4355 445.582 33.5957 446.332 35.0605C447.094 36.5254 447.475 38.125 447.475 39.8594ZM438.387 46.2227C439.395 46.2227 440.303 45.9297 441.111 45.3438C441.92 44.7578 442.553 43.9609 443.01 42.9531C443.467 41.9453 443.695 40.8789 443.695 39.7539C443.695 38.6172 443.443 37.5742 442.939 36.625C442.436 35.6641 441.744 34.9023 440.865 34.3398C439.986 33.7656 438.996 33.4785 437.895 33.4785C436.746 33.4785 435.715 33.7832 434.801 34.3926C433.887 34.9902 433.178 35.7871 432.674 36.7832C432.17 37.7793 431.918 38.875 431.918 40.0703C431.918 41.9922 432.521 43.498 433.729 44.5879C434.947 45.6777 436.5 46.2227 438.387 46.2227ZM452.168 54.2559V52.2695C453.715 52.082 454.488 51.1094 454.488 49.3516C454.488 49.1875 454.471 49.0703 454.436 49H452.168V44.3242H456.861V48.8242C456.861 50.1133 456.721 51.1328 456.439 51.8828C456.17 52.6445 455.695 53.2129 455.016 53.5879C454.348 53.9629 453.398 54.1855 452.168 54.2559ZM482.561 31.3164V30.5254H485.725V36.6602H482.561V35.5352C481.506 34.0234 480.064 33.2676 478.236 33.2676C477.275 33.2676 476.49 33.4785 475.881 33.9004C475.271 34.3223 474.967 34.8672 474.967 35.5352C474.967 36.1328 475.195 36.6016 475.652 36.9414C476.121 37.2812 477.164 37.5801 478.781 37.8379L481.225 38.3125C484.869 38.9805 486.691 40.7676 486.691 43.6738C486.691 45.373 486.029 46.7383 484.705 47.7695C483.393 48.8008 481.646 49.3164 479.467 49.3164C478.6 49.3164 477.744 49.1934 476.9 48.9473C476.068 48.6895 475.371 48.373 474.809 47.998V49H471.574V42.6719H474.809V43.3047C474.984 44.1953 475.477 44.9102 476.285 45.4492C477.105 45.9883 478.055 46.2578 479.133 46.2578C480.316 46.2578 481.248 46.0527 481.928 45.6426C482.607 45.2207 482.947 44.5996 482.947 43.7793C482.947 43.1816 482.678 42.7363 482.139 42.4434C481.6 42.1387 480.516 41.8281 478.887 41.5117L477.006 41.1074C475.143 40.7324 473.777 40.0879 472.91 39.1738C472.043 38.2598 471.609 37.0938 471.609 35.6758C471.609 34.5273 471.926 33.5488 472.559 32.7402C473.203 31.9199 474.023 31.3047 475.02 30.8945C476.016 30.4844 477.041 30.2793 478.096 30.2793C479.865 30.2793 481.354 30.625 482.561 31.3164ZM501.738 30.0332C505.172 30.0332 506.889 31.8906 506.889 35.6055V45.7656H510.018V49H503.25V36.9062C503.25 35.582 503.057 34.6504 502.67 34.1113C502.295 33.5723 501.709 33.3027 500.912 33.3027C499.564 33.3027 497.812 34.0938 495.656 35.6758V45.7656H498.855V49H488.713V45.7656H492.018V25.709H488.713V22.5098H495.656V32.6875C497.836 30.918 499.863 30.0332 501.738 30.0332ZM531.445 39.7891C531.445 41.582 531.018 43.2227 530.162 44.7109C529.307 46.1992 528.141 47.377 526.664 48.2441C525.188 49.1113 523.553 49.5449 521.76 49.5449C519.908 49.5449 518.238 49.1113 516.75 48.2441C515.262 47.377 514.102 46.1992 513.27 44.7109C512.449 43.2227 512.039 41.582 512.039 39.7891C512.039 37.9141 512.449 36.2383 513.27 34.7617C514.102 33.2852 515.256 32.1309 516.732 31.2988C518.209 30.4551 519.885 30.0332 521.76 30.0332C523.576 30.0332 525.223 30.4785 526.699 31.3691C528.176 32.248 529.336 33.4316 530.18 34.9199C531.023 36.4082 531.445 38.0312 531.445 39.7891ZM521.76 46.0117C522.838 46.0117 523.828 45.7305 524.73 45.168C525.633 44.6055 526.336 43.8496 526.84 42.9004C527.344 41.9512 527.596 40.9141 527.596 39.7891C527.596 38.6875 527.344 37.6621 526.84 36.7129C526.336 35.7637 525.633 35.002 524.73 34.4277C523.828 33.8418 522.826 33.5488 521.725 33.5488C520.646 33.5488 519.656 33.8359 518.754 34.4102C517.852 34.9727 517.143 35.7344 516.627 36.6953C516.111 37.6562 515.854 38.6875 515.854 39.7891C515.854 40.8906 516.111 41.9219 516.627 42.8828C517.143 43.8438 517.857 44.6055 518.771 45.168C519.686 45.7305 520.682 46.0117 521.76 46.0117ZM555.756 39.8594C555.756 41.582 555.357 43.1934 554.561 44.6934C553.764 46.1934 552.674 47.377 551.291 48.2441C549.92 49.1113 548.396 49.5449 546.721 49.5449C544.248 49.5449 542.086 48.5957 540.234 46.6973V54.0449H543.838V57.2793H533.256V54.0449H536.596V33.7773H533.502V30.5254H540.234V33.4785C541.148 32.4004 542.156 31.5977 543.258 31.0703C544.359 30.543 545.537 30.2793 546.791 30.2793C548.537 30.2793 550.09 30.7129 551.449 31.5801C552.809 32.4355 553.863 33.5957 554.613 35.0605C555.375 36.5254 555.756 38.125 555.756 39.8594ZM546.668 46.2227C547.676 46.2227 548.584 45.9297 549.393 45.3438C550.201 44.7578 550.834 43.9609 551.291 42.9531C551.748 41.9453 551.977 40.8789 551.977 39.7539C551.977 38.6172 551.725 37.5742 551.221 36.625C550.717 35.6641 550.025 34.9023 549.146 34.3398C548.268 33.7656 547.277 33.4785 546.176 33.4785C545.027 33.4785 543.996 33.7832 543.082 34.3926C542.168 34.9902 541.459 35.7871 540.955 36.7832C540.451 37.7793 540.199 38.875 540.199 40.0703C540.199 41.9922 540.803 43.498 542.01 44.5879C543.229 45.6777 544.781 46.2227 546.668 46.2227ZM580.312 26.2188L577.078 26.7109C576.973 25.5156 576.516 24.918 575.707 24.918C575.133 24.918 574.746 25.123 574.547 25.5332C574.359 25.9434 574.266 26.6758 574.266 27.7305V30.5254H577.43V33.7773H574.266V45.7656H577.746V49H567.92V45.7656H570.627V33.7773H567.92V30.5254H570.627V27.6602C570.627 25.9727 571.037 24.6016 571.857 23.5469C572.689 22.4922 573.914 21.9648 575.531 21.9648C576.867 21.9648 577.939 22.3223 578.748 23.0371C579.568 23.7402 580.09 24.8008 580.312 26.2188ZM599.051 39.7891C599.051 41.582 598.623 43.2227 597.768 44.7109C596.912 46.1992 595.746 47.377 594.27 48.2441C592.793 49.1113 591.158 49.5449 589.365 49.5449C587.514 49.5449 585.844 49.1113 584.355 48.2441C582.867 47.377 581.707 46.1992 580.875 44.7109C580.055 43.2227 579.645 41.582 579.645 39.7891C579.645 37.9141 580.055 36.2383 580.875 34.7617C581.707 33.2852 582.861 32.1309 584.338 31.2988C585.814 30.4551 587.49 30.0332 589.365 30.0332C591.182 30.0332 592.828 30.4785 594.305 31.3691C595.781 32.248 596.941 33.4316 597.785 34.9199C598.629 36.4082 599.051 38.0312 599.051 39.7891ZM589.365 46.0117C590.443 46.0117 591.434 45.7305 592.336 45.168C593.238 44.6055 593.941 43.8496 594.445 42.9004C594.949 41.9512 595.201 40.9141 595.201 39.7891C595.201 38.6875 594.949 37.6621 594.445 36.7129C593.941 35.7637 593.238 35.002 592.336 34.4277C591.434 33.8418 590.432 33.5488 589.33 33.5488C588.252 33.5488 587.262 33.8359 586.359 34.4102C585.457 34.9727 584.748 35.7344 584.232 36.6953C583.717 37.6562 583.459 38.6875 583.459 39.7891C583.459 40.8906 583.717 41.9219 584.232 42.8828C584.748 43.8438 585.463 44.6055 586.377 45.168C587.291 45.7305 588.287 46.0117 589.365 46.0117ZM608.525 41.582V45.7656H612.551V49H601.213V45.7656H604.922V33.7773H601.213V30.5254H607.805V34.709C608.543 33.0566 609.457 31.9082 610.547 31.2637C611.648 30.6074 613.219 30.2793 615.258 30.2793H616.084V33.9531H615.293C613.324 33.9531 611.859 34.2109 610.898 34.7266C609.938 35.2422 609.299 36.0215 608.982 37.0645C608.678 38.1074 608.525 39.6133 608.525 41.582ZM636.158 46.1523C637.787 46.1523 639.551 45.3613 641.449 43.7793V33.7773H638.18V30.5254H645.088V45.7656H648.252V49H641.449V46.873C639.316 48.502 637.289 49.3164 635.367 49.3164C633.633 49.3164 632.35 48.8008 631.518 47.7695C630.697 46.7383 630.287 45.0273 630.287 42.6367V33.7773H627.703V30.5254H633.926V43.3926C633.926 44.3418 634.096 45.0391 634.436 45.4844C634.787 45.9297 635.361 46.1523 636.158 46.1523ZM671.982 39.8594C671.982 41.582 671.584 43.1934 670.787 44.6934C669.99 46.1934 668.9 47.377 667.518 48.2441C666.146 49.1113 664.623 49.5449 662.947 49.5449C660.475 49.5449 658.312 48.5957 656.461 46.6973V54.0449H660.064V57.2793H649.482V54.0449H652.822V33.7773H649.729V30.5254H656.461V33.4785C657.375 32.4004 658.383 31.5977 659.484 31.0703C660.586 30.543 661.764 30.2793 663.018 30.2793C664.764 30.2793 666.316 30.7129 667.676 31.5801C669.035 32.4355 670.09 33.5957 670.84 35.0605C671.602 36.5254 671.982 38.125 671.982 39.8594ZM662.895 46.2227C663.902 46.2227 664.811 45.9297 665.619 45.3438C666.428 44.7578 667.061 43.9609 667.518 42.9531C667.975 41.9453 668.203 40.8789 668.203 39.7539C668.203 38.6172 667.951 37.5742 667.447 36.625C666.943 35.6641 666.252 34.9023 665.373 34.3398C664.494 33.7656 663.504 33.4785 662.402 33.4785C661.254 33.4785 660.223 33.7832 659.309 34.3926C658.395 34.9902 657.686 35.7871 657.182 36.7832C656.678 37.7793 656.426 38.875 656.426 40.0703C656.426 41.9922 657.029 43.498 658.236 44.5879C659.455 45.6777 661.008 46.2227 662.895 46.2227ZM693.727 30.5254V33.7773H690.352V43.4629C690.352 44.4707 690.457 45.127 690.668 45.4316C690.891 45.7246 691.266 45.8711 691.793 45.8711C692.438 45.8711 693.082 45.7598 693.727 45.5371V48.8242C692.602 49.1523 691.693 49.3164 691.002 49.3164C689.479 49.3164 688.383 48.9355 687.715 48.1738C687.047 47.4004 686.713 46.082 686.713 44.2188V33.7773H684.305V30.5254H686.713V27.7305L690.352 24.4082V30.5254H693.727ZM715.629 39.7891C715.629 41.582 715.201 43.2227 714.346 44.7109C713.49 46.1992 712.324 47.377 710.848 48.2441C709.371 49.1113 707.736 49.5449 705.943 49.5449C704.092 49.5449 702.422 49.1113 700.934 48.2441C699.445 47.377 698.285 46.1992 697.453 44.7109C696.633 43.2227 696.223 41.582 696.223 39.7891C696.223 37.9141 696.633 36.2383 697.453 34.7617C698.285 33.2852 699.439 32.1309 700.916 31.2988C702.393 30.4551 704.068 30.0332 705.943 30.0332C707.76 30.0332 709.406 30.4785 710.883 31.3691C712.359 32.248 713.52 33.4316 714.363 34.9199C715.207 36.4082 715.629 38.0312 715.629 39.7891ZM705.943 46.0117C707.021 46.0117 708.012 45.7305 708.914 45.168C709.816 44.6055 710.52 43.8496 711.023 42.9004C711.527 41.9512 711.779 40.9141 711.779 39.7891C711.779 38.6875 711.527 37.6621 711.023 36.7129C710.52 35.7637 709.816 35.002 708.914 34.4277C708.012 33.8418 707.01 33.5488 705.908 33.5488C704.83 33.5488 703.84 33.8359 702.938 34.4102C702.035 34.9727 701.326 35.7344 700.811 36.6953C700.295 37.6562 700.037 38.6875 700.037 39.7891C700.037 40.8906 700.295 41.9219 700.811 42.8828C701.326 43.8438 702.041 44.6055 702.955 45.168C703.869 45.7305 704.865 46.0117 705.943 46.0117ZM401.953 111.406C401.953 115.375 400.938 118.844 398.906 121.812C396.906 124.781 393.344 128.156 388.219 131.938L383.719 135.312C380 138.125 377.125 140.406 375.094 142.156C373.094 143.906 371.375 145.844 369.938 147.969C368.5 150.094 367.516 152.469 366.984 155.094H393.562L393.984 138.734H402.516L401.953 164H356.719C356.781 158.25 357.766 153.266 359.672 149.047C361.609 144.797 363.906 141.297 366.562 138.547C369.219 135.797 372.406 133.016 376.125 130.203L383.109 124.906C386.328 122.562 388.578 120.422 389.859 118.484C391.141 116.516 391.781 114.281 391.781 111.781C391.781 108.25 390.75 105.5 388.688 103.531C386.656 101.531 383.844 100.531 380.25 100.531C375.625 100.531 372.406 101.891 370.594 104.609C368.781 107.328 367.875 111.547 367.875 117.266V119.656H358.547V116.938C358.547 109.406 360.203 103.531 363.516 99.3125C365.516 96.875 367.891 95.0781 370.641 93.9219C373.391 92.7656 376.688 92.1875 380.531 92.1875C385.281 92.1875 389.25 93.0938 392.438 94.9062C395.625 96.6875 398 99.0312 399.562 101.938C401.156 104.844 401.953 108 401.953 111.406ZM461.531 128.75C461.531 136.438 460.531 143.016 458.531 148.484C456.562 153.953 453.75 158.109 450.094 160.953C446.469 163.766 442.156 165.172 437.156 165.172C429.219 165.172 423.141 161.891 418.922 155.328C414.703 148.766 412.594 139.906 412.594 128.75C412.594 121.031 413.578 114.438 415.547 108.969C417.547 103.469 420.391 99.2969 424.078 96.4531C427.797 93.6094 432.156 92.1875 437.156 92.1875C444.969 92.1875 450.984 95.4531 455.203 101.984C459.422 108.516 461.531 117.438 461.531 128.75ZM437.156 156.875C441.781 156.875 445.281 154.688 447.656 150.312C450.062 145.938 451.266 138.625 451.266 128.375C451.266 118.219 450.031 111.031 447.562 106.812C445.094 102.562 441.594 100.438 437.062 100.438C432.188 100.438 428.609 102.812 426.328 107.562C424.078 112.281 422.953 119.344 422.953 128.75C422.953 138.625 424.141 145.781 426.516 150.219C428.891 154.656 432.438 156.875 437.156 156.875ZM500.203 111.125C500.203 116.875 498.922 121.484 496.359 124.953C493.828 128.391 490.094 130.109 485.156 130.109C480.531 130.109 476.859 128.469 474.141 125.188C471.422 121.875 470.062 117.188 470.062 111.125C470.062 105.875 471.297 101.406 473.766 97.7188C476.234 94.0312 480 92.1875 485.062 92.1875C489.781 92.1875 493.484 93.8594 496.172 97.2031C498.859 100.516 500.203 105.156 500.203 111.125ZM474.094 164L530.156 93.3594H538.453L482.672 164H474.094ZM485.156 123.781C489.75 123.781 492.047 119.562 492.047 111.125C492.047 102.719 489.75 98.5156 485.156 98.5156C482.844 98.5156 481.094 99.5312 479.906 101.562C478.719 103.562 478.125 106.75 478.125 111.125C478.125 119.562 480.469 123.781 485.156 123.781ZM542.672 146.234C542.672 151.984 541.391 156.578 538.828 160.016C536.266 163.453 532.484 165.172 527.484 165.172C522.891 165.172 519.234 163.547 516.516 160.297C513.797 157.016 512.438 152.328 512.438 146.234C512.438 140.797 513.672 136.281 516.141 132.688C518.641 129.062 522.391 127.25 527.391 127.25C532.203 127.25 535.953 128.922 538.641 132.266C541.328 135.578 542.672 140.234 542.672 146.234ZM527.484 158.797C532.172 158.797 534.516 154.609 534.516 146.234C534.516 142.078 533.922 138.938 532.734 136.812C531.547 134.656 529.797 133.578 527.484 133.578C522.828 133.578 520.5 137.797 520.5 146.234C520.5 154.609 522.828 158.797 527.484 158.797ZM651.422 128.469C651.422 135.656 649.828 142.047 646.641 147.641C643.484 153.234 639.109 157.562 633.516 160.625C627.922 163.656 621.562 165.172 614.438 165.172C607.406 165.172 601.156 163.594 595.688 160.438C590.219 157.25 585.953 152.859 582.891 147.266C579.859 141.641 578.344 135.312 578.344 128.281C578.344 121.312 579.891 115.094 582.984 109.625C586.109 104.156 590.406 99.8906 595.875 96.8281C601.344 93.7344 607.562 92.1875 614.531 92.1875C621.781 92.1875 628.203 93.7812 633.797 96.9688C639.391 100.125 643.719 104.453 646.781 109.953C649.875 115.453 651.422 121.625 651.422 128.469ZM614.859 155.75C619.703 155.75 624.031 154.484 627.844 151.953C631.656 149.422 634.594 146.062 636.656 141.875C638.75 137.688 639.797 133.219 639.797 128.469C639.797 123.625 638.688 119.141 636.469 115.016C634.281 110.859 631.25 107.594 627.375 105.219C623.5 102.812 619.125 101.609 614.25 101.609C609.469 101.609 605.234 102.781 601.547 105.125C597.859 107.438 595 110.641 592.969 114.734C590.969 118.828 589.969 123.375 589.969 128.375C589.969 133.688 590.969 138.422 592.969 142.578C595 146.734 597.906 149.969 601.688 152.281C605.469 154.594 609.859 155.75 614.859 155.75ZM692.062 103.25L683.438 104.562C683.156 101.375 681.938 99.7812 679.781 99.7812C678.25 99.7812 677.219 100.328 676.688 101.422C676.188 102.516 675.938 104.469 675.938 107.281V114.734H684.375V123.406H675.938V155.375H685.219V164H659.016V155.375H666.234V123.406H659.016V114.734H666.234V107.094C666.234 102.594 667.328 98.9375 669.516 96.125C671.734 93.3125 675 91.9062 679.312 91.9062C682.875 91.9062 685.734 92.8594 687.891 94.7656C690.078 96.6406 691.469 99.4688 692.062 103.25ZM722.438 103.25L713.812 104.562C713.531 101.375 712.312 99.7812 710.156 99.7812C708.625 99.7812 707.594 100.328 707.062 101.422C706.562 102.516 706.312 104.469 706.312 107.281V114.734H714.75V123.406H706.312V155.375H715.594V164H689.391V155.375H696.609V123.406H689.391V114.734H696.609V107.094C696.609 102.594 697.703 98.9375 699.891 96.125C702.109 93.3125 705.375 91.9062 709.688 91.9062C713.25 91.9062 716.109 92.8594 718.266 94.7656C720.453 96.6406 721.844 99.4688 722.438 103.25Z" fill="black"/>
<rect x="876.5" y="53.5" width="310" height="109" rx="8.5" fill="#0F0646" stroke="black"/>
<path d="M907.539 86.0859V112.594H919.141V101.648H923.523V117H897.648V112.594H902.195V86.0859H897.648V81.6797H912.086V86.0859H907.539ZM952.938 105.914H932.289C932.586 108.273 933.5 110.141 935.031 111.516C936.562 112.875 938.438 113.555 940.656 113.555C942.281 113.555 943.789 113.219 945.18 112.547C946.57 111.875 947.734 110.844 948.672 109.453L952.938 111.375C951.594 113.469 949.828 115.055 947.641 116.133C945.469 117.195 943.102 117.727 940.539 117.727C937.883 117.727 935.523 117.172 933.461 116.062C931.398 114.953 929.789 113.406 928.633 111.422C927.492 109.438 926.922 107.203 926.922 104.719C926.922 102.25 927.484 100.023 928.609 98.0391C929.75 96.0547 931.305 94.5078 933.273 93.3984C935.242 92.2734 937.414 91.7109 939.789 91.7109C942.383 91.7109 944.641 92.2891 946.562 93.4453C948.5 94.5859 950.023 96.2266 951.133 98.3672C952.242 100.492 952.844 103.008 952.938 105.914ZM939.883 95.7422C938.055 95.7422 936.453 96.3594 935.078 97.5938C933.703 98.8125 932.82 100.43 932.43 102.445H947.852C947.398 100.43 946.438 98.8125 944.969 97.5938C943.5 96.3594 941.805 95.7422 939.883 95.7422ZM977.57 101.062V112.688H981.695V117H973.305V113.977C970.961 116.273 968.352 117.422 965.477 117.422C963.961 117.422 962.57 117.07 961.305 116.367C960.055 115.664 959.047 114.727 958.281 113.555C957.531 112.367 957.156 111.055 957.156 109.617C957.156 108.07 957.57 106.695 958.398 105.492C959.242 104.273 960.375 103.336 961.797 102.68C963.219 102.023 964.648 101.695 966.086 101.695C968.492 101.695 970.734 102.398 972.812 103.805V101.156C972.812 99.2344 972.406 97.8594 971.594 97.0312C970.781 96.2031 969.445 95.7891 967.586 95.7891C966.273 95.7891 965.172 96.0312 964.281 96.5156C963.406 96.9844 962.68 97.7031 962.102 98.6719L957.461 97.5234C958.508 95.5703 959.922 94.1172 961.703 93.1641C963.484 92.1953 965.602 91.7109 968.055 91.7109C971.352 91.7109 973.758 92.4609 975.273 93.9609C976.805 95.4609 977.57 97.8281 977.57 101.062ZM966.133 113.695C968.508 113.695 970.734 112.703 972.812 110.719V107.836C970.703 106.195 968.594 105.375 966.484 105.375C965.203 105.375 964.094 105.781 963.156 106.594C962.234 107.391 961.773 108.398 961.773 109.617C961.773 110.789 962.18 111.766 962.992 112.547C963.805 113.312 964.852 113.695 966.133 113.695ZM993.414 107.109V112.688H998.781V117H983.664V112.688H988.609V96.7031H983.664V92.3672H992.453V97.9453C993.438 95.7422 994.656 94.2109 996.109 93.3516C997.578 92.4766 999.672 92.0391 1002.39 92.0391H1003.49V96.9375H1002.44C999.812 96.9375 997.859 97.2812 996.578 97.9688C995.297 98.6562 994.445 99.6953 994.023 101.086C993.617 102.477 993.414 104.484 993.414 107.109ZM1029.65 100.43V112.688H1033.77V117H1024.8V100.734C1024.8 99.1875 1024.57 98.0781 1024.12 97.4062C1023.68 96.7344 1022.95 96.3984 1021.94 96.3984C1019.78 96.3984 1017.36 97.4609 1014.67 99.5859V112.688H1018.91V117H1005.55V112.688H1009.89V96.7031H1005.55V92.3672H1014.67V95.3438C1017.69 93.1406 1020.52 92.0391 1023.18 92.0391C1025.38 92.0391 1027.01 92.7188 1028.05 94.0781C1029.12 95.4375 1029.65 97.5547 1029.65 100.43ZM1053.25 112.688V96.7031H1049.1V92.3672H1058.08V95.4844C1060.97 93.1875 1063.8 92.0391 1066.59 92.0391C1069.43 92.0391 1071.38 93.3203 1072.45 95.8828C1075.6 93.3203 1078.58 92.0391 1081.38 92.0391C1083.36 92.0391 1084.94 92.625 1086.11 93.7969C1087.3 94.9688 1087.89 96.7656 1087.89 99.1875V112.688H1092.2V117H1083.09V101.391C1083.09 100.312 1083.03 99.4375 1082.92 98.7656C1082.81 98.0938 1082.52 97.5234 1082.05 97.0547C1081.6 96.5859 1080.88 96.3516 1079.88 96.3516C1078.98 96.3516 1077.95 96.6172 1076.76 97.1484C1075.57 97.6797 1074.32 98.4766 1073.01 99.5391V112.688H1077.18V117H1068.16V100.781C1068.16 99.2031 1067.91 98.0703 1067.43 97.3828C1066.96 96.6953 1066.18 96.3516 1065.09 96.3516C1063.3 96.3516 1060.97 97.4141 1058.08 99.5391V112.688H1062.41V117H1048.82V112.688H1053.25ZM1120.66 104.719C1120.66 107.109 1120.09 109.297 1118.95 111.281C1117.8 113.266 1116.25 114.836 1114.28 115.992C1112.31 117.148 1110.13 117.727 1107.74 117.727C1105.27 117.727 1103.05 117.148 1101.06 115.992C1099.08 114.836 1097.53 113.266 1096.42 111.281C1095.33 109.297 1094.78 107.109 1094.78 104.719C1094.78 102.219 1095.33 99.9844 1096.42 98.0156C1097.53 96.0469 1099.07 94.5078 1101.04 93.3984C1103.01 92.2734 1105.24 91.7109 1107.74 91.7109C1110.16 91.7109 1112.36 92.3047 1114.33 93.4922C1116.3 94.6641 1117.84 96.2422 1118.97 98.2266C1120.09 100.211 1120.66 102.375 1120.66 104.719ZM1107.74 113.016C1109.18 113.016 1110.5 112.641 1111.7 111.891C1112.91 111.141 1113.84 110.133 1114.52 108.867C1115.19 107.602 1115.52 106.219 1115.52 104.719C1115.52 103.25 1115.19 101.883 1114.52 100.617C1113.84 99.3516 1112.91 98.3359 1111.7 97.5703C1110.5 96.7891 1109.16 96.3984 1107.7 96.3984C1106.26 96.3984 1104.94 96.7812 1103.73 97.5469C1102.53 98.2969 1101.59 99.3125 1100.9 100.594C1100.21 101.875 1099.87 103.25 1099.87 104.719C1099.87 106.188 1100.21 107.562 1100.9 108.844C1101.59 110.125 1102.54 111.141 1103.76 111.891C1104.98 112.641 1106.3 113.016 1107.74 113.016ZM1133.29 107.109V112.688H1138.66V117H1123.54V112.688H1128.48V96.7031H1123.54V92.3672H1132.33V97.9453C1133.31 95.7422 1134.53 94.2109 1135.98 93.3516C1137.45 92.4766 1139.55 92.0391 1142.27 92.0391H1143.37V96.9375H1142.31C1139.69 96.9375 1137.73 97.2812 1136.45 97.9688C1135.17 98.6562 1134.32 99.6953 1133.9 101.086C1133.49 102.477 1133.29 104.484 1133.29 107.109ZM1169.17 105.914H1148.52C1148.82 108.273 1149.73 110.141 1151.27 111.516C1152.8 112.875 1154.67 113.555 1156.89 113.555C1158.52 113.555 1160.02 113.219 1161.41 112.547C1162.8 111.875 1163.97 110.844 1164.91 109.453L1169.17 111.375C1167.83 113.469 1166.06 115.055 1163.88 116.133C1161.7 117.195 1159.34 117.727 1156.77 117.727C1154.12 117.727 1151.76 117.172 1149.7 116.062C1147.63 114.953 1146.02 113.406 1144.87 111.422C1143.73 109.438 1143.16 107.203 1143.16 104.719C1143.16 102.25 1143.72 100.023 1144.84 98.0391C1145.98 96.0547 1147.54 94.5078 1149.51 93.3984C1151.48 92.2734 1153.65 91.7109 1156.02 91.7109C1158.62 91.7109 1160.88 92.2891 1162.8 93.4453C1164.73 94.5859 1166.26 96.2266 1167.37 98.3672C1168.48 100.492 1169.08 103.008 1169.17 105.914ZM1156.12 95.7422C1154.29 95.7422 1152.69 96.3594 1151.31 97.5938C1149.94 98.8125 1149.05 100.43 1148.66 102.445H1164.09C1163.63 100.43 1162.67 98.8125 1161.2 97.5938C1159.73 96.3594 1158.04 95.7422 1156.12 95.7422Z" fill="white"/>
<defs>
<linearGradient id="paint0_linear" x1="640.5" y1="0" x2="640.5" y2="205" gradientUnits="userSpaceOnUse">
<stop stop-color="#AB8463"/>
<stop offset="0.0001" stop-color="#AB8463"/>
<stop offset="1" stop-color="#AB8463" stop-opacity="0.6"/>
</linearGradient>
</defs>
</svg>

