<svg width="241" height="77" viewBox="0 0 241 77" fill="none" xmlns="http://www.w3.org/2000/svg">
<rect width="241" height="77" rx="13" fill="#AB8463"/>
<path d="M55.5352 26.4277V23.5098H58.9102V32H55.4648C54.5977 30.3008 53.4082 28.9766 51.8965 28.0273C50.3848 27.0781 48.7266 26.6035 46.9219 26.6035C45.1758 26.6035 43.6172 27.0664 42.2461 27.9922C40.875 28.9062 39.8027 30.1367 39.0293 31.6836C38.2676 33.2188 37.8867 34.8711 37.8867 36.6406C37.8867 38.4688 38.2852 40.1562 39.082 41.7031C39.8906 43.25 40.998 44.4863 42.4043 45.4121C43.8105 46.3379 45.375 46.8008 47.0977 46.8008C49.2188 46.8008 51.0938 46.1562 52.7227 44.8672C54.3516 43.5664 55.541 41.7266 56.291 39.3477L59.666 41.1406C58.752 44.0938 57.1348 46.3848 54.8145 48.0137C52.5059 49.6309 49.793 50.4395 46.6758 50.4395C44.1094 50.4395 41.8301 49.8301 39.8379 48.6113C37.8457 47.3809 36.293 45.7344 35.1797 43.6719C34.0781 41.5977 33.5273 39.3242 33.5273 36.8516C33.5273 34.168 34.0898 31.7773 35.2148 29.6797C36.3516 27.582 37.916 25.959 39.9082 24.8105C41.9004 23.6504 44.1797 23.0703 46.7461 23.0703C48.4688 23.0703 50.0566 23.3574 51.5098 23.9316C52.9629 24.5059 54.3047 25.3379 55.5352 26.4277ZM75.082 31.0332C78.5156 31.0332 80.2324 32.8906 80.2324 36.6055V46.7656H83.3613V50H76.5938V37.9062C76.5938 36.582 76.4004 35.6504 76.0137 35.1113C75.6387 34.5723 75.0527 34.3027 74.2559 34.3027C72.9082 34.3027 71.1562 35.0938 69 36.6758V46.7656H72.1992V50H62.0566V46.7656H65.3613V26.709H62.0566V23.5098H69V33.6875C71.1797 31.918 73.207 31.0332 75.082 31.0332ZM104.895 41.6855H89.4082C89.6309 43.4551 90.3164 44.8555 91.4648 45.8867C92.6133 46.9062 94.0195 47.416 95.6836 47.416C96.9023 47.416 98.0332 47.1641 99.0762 46.6602C100.119 46.1562 100.992 45.3828 101.695 44.3398L104.895 45.7812C103.887 47.3516 102.562 48.541 100.922 49.3496C99.293 50.1465 97.5176 50.5449 95.5957 50.5449C93.6035 50.5449 91.834 50.1289 90.2871 49.2969C88.7402 48.4648 87.5332 47.3047 86.666 45.8164C85.8105 44.3281 85.3828 42.6523 85.3828 40.7891C85.3828 38.9375 85.8047 37.2676 86.6484 35.7793C87.5039 34.291 88.6699 33.1309 90.1465 32.2988C91.623 31.4551 93.252 31.0332 95.0332 31.0332C96.9785 31.0332 98.6719 31.4668 100.113 32.334C101.566 33.1895 102.709 34.4199 103.541 36.0254C104.373 37.6191 104.824 39.5059 104.895 41.6855ZM95.1035 34.0566C93.7324 34.0566 92.5312 34.5195 91.5 35.4453C90.4688 36.3594 89.8066 37.5723 89.5137 39.084H101.08C100.74 37.5723 100.02 36.3594 98.918 35.4453C97.8164 34.5195 96.5449 34.0566 95.1035 34.0566ZM121.893 32.8613V31.5254H125.127V38.5215H121.893C121.752 37.1738 121.213 36.1484 120.275 35.4453C119.338 34.7305 118.254 34.373 117.023 34.373C115.969 34.373 115.02 34.6543 114.176 35.2168C113.344 35.7793 112.699 36.541 112.242 37.502C111.785 38.4629 111.557 39.5117 111.557 40.6484C111.557 42.582 112.072 44.1641 113.104 45.3945C114.135 46.6133 115.494 47.2227 117.182 47.2227C119.795 47.2227 121.641 46.0098 122.719 43.584L125.742 45.0254C124.043 48.7051 121.137 50.5449 117.023 50.5449C115.184 50.5449 113.549 50.1113 112.119 49.2441C110.689 48.377 109.582 47.1875 108.797 45.6758C108.023 44.1641 107.637 42.4883 107.637 40.6484C107.637 38.8438 108.029 37.2031 108.814 35.7266C109.611 34.25 110.701 33.1016 112.084 32.2812C113.467 31.4492 115.008 31.0332 116.707 31.0332C118.723 31.0332 120.451 31.6426 121.893 32.8613ZM140.947 34.5488H138.029V31.5254H148.26V34.5488H145.412L138.504 40.2793L145.025 46.7656H148.26V50H143.461L134.215 40.6836V46.7656H137.344V50H127.271V46.7656H130.576V26.709H127.271V23.5098H134.215V40.209L140.947 34.5488ZM169.617 40.7891C169.617 42.582 169.189 44.2227 168.334 45.7109C167.479 47.1992 166.312 48.377 164.836 49.2441C163.359 50.1113 161.725 50.5449 159.932 50.5449C158.08 50.5449 156.41 50.1113 154.922 49.2441C153.434 48.377 152.273 47.1992 151.441 45.7109C150.621 44.2227 150.211 42.582 150.211 40.7891C150.211 38.9141 150.621 37.2383 151.441 35.7617C152.273 34.2852 153.428 33.1309 154.904 32.2988C156.381 31.4551 158.057 31.0332 159.932 31.0332C161.748 31.0332 163.395 31.4785 164.871 32.3691C166.348 33.248 167.508 34.4316 168.352 35.9199C169.195 37.4082 169.617 39.0312 169.617 40.7891ZM159.932 47.0117C161.01 47.0117 162 46.7305 162.902 46.168C163.805 45.6055 164.508 44.8496 165.012 43.9004C165.516 42.9512 165.768 41.9141 165.768 40.7891C165.768 39.6875 165.516 38.6621 165.012 37.7129C164.508 36.7637 163.805 36.002 162.902 35.4277C162 34.8418 160.998 34.5488 159.896 34.5488C158.818 34.5488 157.828 34.8359 156.926 35.4102C156.023 35.9727 155.314 36.7344 154.799 37.6953C154.283 38.6562 154.025 39.6875 154.025 40.7891C154.025 41.8906 154.283 42.9219 154.799 43.8828C155.314 44.8438 156.029 45.6055 156.943 46.168C157.857 46.7305 158.854 47.0117 159.932 47.0117ZM180.639 47.1523C182.268 47.1523 184.031 46.3613 185.93 44.7793V34.7773H182.66V31.5254H189.568V46.7656H192.732V50H185.93V47.873C183.797 49.502 181.77 50.3164 179.848 50.3164C178.113 50.3164 176.83 49.8008 175.998 48.7695C175.178 47.7383 174.768 46.0273 174.768 43.6367V34.7773H172.184V31.5254H178.406V44.3926C178.406 45.3418 178.576 46.0391 178.916 46.4844C179.268 46.9297 179.842 47.1523 180.639 47.1523ZM204.141 31.5254V34.7773H200.766V44.4629C200.766 45.4707 200.871 46.127 201.082 46.4316C201.305 46.7246 201.68 46.8711 202.207 46.8711C202.852 46.8711 203.496 46.7598 204.141 46.5371V49.8242C203.016 50.1523 202.107 50.3164 201.416 50.3164C199.893 50.3164 198.797 49.9355 198.129 49.1738C197.461 48.4004 197.127 47.082 197.127 45.2188V34.7773H194.719V31.5254H197.127V28.7305L200.766 25.4082V31.5254H204.141Z" fill="white"/>
</svg>
