<svg width="163" height="32" viewBox="0 0 163 32" fill="none" xmlns="http://www.w3.org/2000/svg">
<ellipse rx="3.04991" ry="4.76452" transform="matrix(0.911533 -0.411228 0.372382 0.92808 4.55432 10.572)" fill="black"/>
<ellipse rx="3.02901" ry="4.79443" transform="matrix(0.976599 -0.215071 0.192213 0.981353 11.4552 5.35648)" fill="black"/>
<ellipse rx="3.04991" ry="4.76452" transform="matrix(0.911533 -0.411228 0.372382 0.92808 4.55432 10.572)" fill="black"/>
<ellipse rx="3.02901" ry="4.79443" transform="matrix(0.976599 -0.215071 0.192213 0.981353 11.4552 5.35648)" fill="black"/>
<ellipse rx="3.04991" ry="4.76452" transform="matrix(0.911533 -0.411228 0.372382 0.92808 4.55432 10.572)" fill="black"/>
<ellipse rx="3.02901" ry="4.79443" transform="matrix(0.976599 -0.215071 0.192213 0.981353 11.4552 5.35648)" fill="black"/>
<ellipse rx="3.02799" ry="4.75883" transform="matrix(-0.910184 -0.414205 -0.3696 0.929191 26.0222 10.572)" fill="black"/>
<ellipse rx="3.00401" ry="4.7929" transform="matrix(-0.976203 -0.216861 -0.19061 0.981666 19.181 5.35648)" fill="black"/>
<path d="M11.0918 13.4552C11.9981 10.8923 13.8109 10.8923 14.7173 10.8923C15.6237 10.8923 17.1342 11.2127 18.0407 12.8145C18.9471 14.4163 19.6307 16.6588 20.5371 17.9403C20.5371 17.9403 23.0596 19.2297 24.0832 21.4643C25.0816 23.6441 22.7067 26.7602 21.364 27.5511C18.6449 29.153 15.6237 29.153 13.8109 28.8326C11.9982 28.5122 6.86204 27.8715 5.95566 25.9493C5.04929 24.0272 4.74714 22.105 5.95566 20.1828C7.16419 18.2606 8.32861 19.5421 9.53711 17.9403C10.7456 16.3385 10.1854 16.0181 11.0918 13.4552Z" fill="black"/>
<path d="M48.4199 9.2832H53.5176V11.1191H51.7402V22.1641H53.5176V24H47.9805V22.1641H49.7188V11.1191L44.6602 24.1562H44.2207L39.2012 11.1191V22.1641H40.8223V24H35.5977V22.1641H37.3848V11.1191H35.5977V9.2832H40.6465L44.5234 19.3613L48.4199 9.2832ZM59.5039 22.418C60.4089 22.418 61.3887 21.9785 62.4434 21.0996V15.543H60.627V13.7363H64.4648V22.2031H66.2227V24H62.4434V22.8184C61.2585 23.7233 60.1322 24.1758 59.0645 24.1758C58.1009 24.1758 57.388 23.8893 56.9258 23.3164C56.4701 22.7435 56.2422 21.793 56.2422 20.4648V15.543H54.8066V13.7363H58.2637V20.8848C58.2637 21.4121 58.3581 21.7995 58.5469 22.0469C58.7422 22.2943 59.0612 22.418 59.5039 22.418ZM79.9824 22.2031V24H76.125V22.4961C75.0964 23.6159 73.8691 24.1758 72.4434 24.1758C71.4538 24.1758 70.5781 23.9447 69.8164 23.4824C69.0612 23.0137 68.472 22.3789 68.0488 21.5781C67.6322 20.7773 67.4238 19.8919 67.4238 18.9219C67.4238 17.9323 67.6452 17.0208 68.0879 16.1875C68.5371 15.3542 69.1556 14.6934 69.9434 14.2051C70.7311 13.7103 71.584 13.4629 72.502 13.4629C73.166 13.4629 73.7943 13.5964 74.3867 13.8633C74.9857 14.1302 75.5651 14.5501 76.125 15.123V11.0605H74.1426V9.2832H78.127V22.2031H79.9824ZM72.8242 22.3789C73.4492 22.3789 74.0124 22.2129 74.5137 21.8809C75.015 21.5488 75.4089 21.1061 75.6953 20.5527C75.9818 19.9993 76.125 19.4069 76.125 18.7754C76.125 18.1374 75.9818 17.5547 75.6953 17.0273C75.4089 16.5 75.0117 16.0833 74.5039 15.7773C73.9961 15.4714 73.4232 15.3184 72.7852 15.3184C72.1667 15.3184 71.6133 15.4844 71.125 15.8164C70.6432 16.1419 70.2624 16.5781 69.9824 17.125C69.7025 17.6654 69.5625 18.2448 69.5625 18.8633C69.5625 19.5273 69.7057 20.1263 69.9922 20.6602C70.2786 21.194 70.6693 21.6139 71.1641 21.9199C71.6589 22.2259 72.2122 22.3789 72.8242 22.3789ZM93.5566 22.2031V24H89.6992V22.4961C88.6706 23.6159 87.4434 24.1758 86.0176 24.1758C85.028 24.1758 84.1523 23.9447 83.3906 23.4824C82.6354 23.0137 82.0462 22.3789 81.623 21.5781C81.2064 20.7773 80.998 19.8919 80.998 18.9219C80.998 17.9323 81.2194 17.0208 81.6621 16.1875C82.1113 15.3542 82.7298 14.6934 83.5176 14.2051C84.3053 13.7103 85.1582 13.4629 86.0762 13.4629C86.7402 13.4629 87.3685 13.5964 87.9609 13.8633C88.5599 14.1302 89.1393 14.5501 89.6992 15.123V11.0605H87.7168V9.2832H91.7012V22.2031H93.5566ZM86.3984 22.3789C87.0234 22.3789 87.5866 22.2129 88.0879 21.8809C88.5892 21.5488 88.9831 21.1061 89.2695 20.5527C89.556 19.9993 89.6992 19.4069 89.6992 18.7754C89.6992 18.1374 89.556 17.5547 89.2695 17.0273C88.9831 16.5 88.5859 16.0833 88.0781 15.7773C87.5703 15.4714 86.9974 15.3184 86.3594 15.3184C85.7409 15.3184 85.1875 15.4844 84.6992 15.8164C84.2174 16.1419 83.8366 16.5781 83.5566 17.125C83.2767 17.6654 83.1367 18.2448 83.1367 18.8633C83.1367 19.5273 83.2799 20.1263 83.5664 20.6602C83.8529 21.194 84.2435 21.6139 84.7383 21.9199C85.2331 22.2259 85.7865 22.3789 86.3984 22.3789ZM98.0488 15.543L100.275 21.3438L102.434 15.543H101.066V13.7363H105.969V15.543H104.455L99.3867 28.5996H95.9688V26.8418H97.9902L99.2109 23.8242L95.8516 15.543H94.1328V13.7363H99.2695V15.543H98.0488Z" fill="#AB8463"/>
<path d="M123.537 13.8242C123.537 15.1654 123.124 16.2526 122.297 17.0859C121.47 17.9193 120.07 18.3424 118.098 18.3555H116.164V22.1641H118.078V24H112.102V22.1641H113.938V11.1191H112.102V9.2832H117.58C119.058 9.2832 120.23 9.44271 121.096 9.76172C121.968 10.0807 122.593 10.569 122.971 11.2266C123.348 11.8776 123.537 12.7435 123.537 13.8242ZM121.281 13.7754C121.281 12.8574 121.011 12.1868 120.471 11.7637C119.93 11.334 119.006 11.1191 117.697 11.1191H116.164V16.5781H117.541C118.446 16.5781 119.169 16.4967 119.709 16.334C120.249 16.1647 120.646 15.8783 120.9 15.4746C121.154 15.0645 121.281 14.498 121.281 13.7754ZM132.98 17.3594V22.2031H134.699V24H131.203V22.7402C130.227 23.6973 129.139 24.1758 127.941 24.1758C127.31 24.1758 126.73 24.0293 126.203 23.7363C125.682 23.4434 125.262 23.0527 124.943 22.5645C124.631 22.0697 124.475 21.5228 124.475 20.9238C124.475 20.2793 124.647 19.7064 124.992 19.2051C125.344 18.6973 125.816 18.3066 126.408 18.0332C127.001 17.7598 127.596 17.623 128.195 17.623C129.198 17.623 130.132 17.916 130.998 18.502V17.3984C130.998 16.5977 130.829 16.0247 130.49 15.6797C130.152 15.3346 129.595 15.1621 128.82 15.1621C128.273 15.1621 127.814 15.263 127.443 15.4648C127.079 15.6602 126.776 15.9596 126.535 16.3633L124.602 15.8848C125.038 15.071 125.627 14.4655 126.369 14.0684C127.111 13.6647 127.993 13.4629 129.016 13.4629C130.389 13.4629 131.392 13.7754 132.023 14.4004C132.661 15.0254 132.98 16.0117 132.98 17.3594ZM128.215 22.623C129.204 22.623 130.132 22.2096 130.998 21.3828V20.1816C130.119 19.498 129.24 19.1562 128.361 19.1562C127.827 19.1562 127.365 19.3255 126.975 19.6641C126.59 19.9961 126.398 20.416 126.398 20.9238C126.398 21.4121 126.568 21.819 126.906 22.1445C127.245 22.4635 127.681 22.623 128.215 22.623ZM138.381 15.543L140.324 21.7246L142.277 15.543H141.184V13.7363H146.115V15.543H144.982L146.965 21.7246L148.938 15.543H147.521V13.7363H152.141V15.543H150.656L147.922 24.1758H146.018L143.664 16.7637L141.281 24.1758H139.396L136.643 15.543H135.402V13.7363H139.719V15.543H138.381ZM159.035 14.1758V13.7363H160.793V17.1445H159.035V16.5195C158.449 15.6797 157.648 15.2598 156.633 15.2598C156.099 15.2598 155.663 15.377 155.324 15.6113C154.986 15.8457 154.816 16.1484 154.816 16.5195C154.816 16.8516 154.943 17.112 155.197 17.3008C155.458 17.4896 156.037 17.6556 156.936 17.7988L158.293 18.0625C160.318 18.4336 161.33 19.4264 161.33 21.041C161.33 21.985 160.962 22.7435 160.227 23.3164C159.497 23.8893 158.527 24.1758 157.316 24.1758C156.835 24.1758 156.359 24.1074 155.891 23.9707C155.428 23.8275 155.041 23.6517 154.729 23.4434V24H152.932V20.4844H154.729V20.8359C154.826 21.3307 155.1 21.7279 155.549 22.0273C156.005 22.3268 156.532 22.4766 157.131 22.4766C157.788 22.4766 158.306 22.3626 158.684 22.1348C159.061 21.9004 159.25 21.5553 159.25 21.0996C159.25 20.7676 159.1 20.5202 158.801 20.3574C158.501 20.1882 157.899 20.0156 156.994 19.8398L155.949 19.6152C154.914 19.4069 154.156 19.0488 153.674 18.541C153.192 18.0332 152.951 17.3854 152.951 16.5977C152.951 15.9596 153.127 15.416 153.479 14.9668C153.837 14.5111 154.292 14.1693 154.846 13.9414C155.399 13.7135 155.969 13.5996 156.555 13.5996C157.538 13.5996 158.365 13.7917 159.035 14.1758Z" fill="black"/>
</svg>

