<svg width="71" height="71" viewBox="0 0 71 71" fill="none" xmlns="http://www.w3.org/2000/svg">
<circle cx="35.5" cy="35.5" r="35.5" fill="#C4C4C4"/>
<path d="M20.279 16.5494L25.9651 18.2877L22.0178 22.2353L20.279 16.5494Z" fill="white"/>
<path d="M20.279 16.5494L25.9651 18.2877L22.0178 22.2353L20.279 16.5494Z" fill="white"/>
<path d="M20.279 16.5494L25.9651 18.2877L22.0178 22.2353L20.279 16.5494Z" fill="white"/>
<path d="M20.279 16.5494L25.9651 18.2877L22.0178 22.2353L20.279 16.5494Z" fill="white"/>
<path d="M50.9408 16.9912L49.6856 23.1606L44.7713 18.2463L50.9408 16.9912Z" fill="white"/>
<path d="M50.9408 16.9912L49.6856 23.1606L44.7713 18.2463L50.9408 16.9912Z" fill="white"/>
<path d="M50.9408 16.9912L49.6856 23.1606L44.7713 18.2463L50.9408 16.9912Z" fill="white"/>
<path d="M50.9408 16.9912L49.6856 23.1606L44.7713 18.2463L50.9408 16.9912Z" fill="white"/>
<rect x="29" y="39" width="12" height="32" rx="4" fill="white"/>
<path d="M29.5002 56.4999C23.5002 56.4999 23.5 55 21 52.5L16.5 46L11.5 43" stroke="white"/>
<ellipse cx="35.5" cy="28.5" rx="17.5" ry="12.5" fill="white"/>
</svg>
